{"accessors" : [{"bufferView" : 0, "byteOffset" : 0, "componentType" : 5123, "count" : 9210, "type" : "SCALAR", "max" : [9207], "min" : [0]}, {"bufferView" : 1, "byteOffset" : 0, "componentType" : 5126, "count" : 9208, "type" : "VEC3", "max" : [112.23895263671875, 180.1543731689453, 118.13262939453125], "min" : [-101.68675994873047, 9.9999998245167E-15, -53.811363220214844], "name" : "POSITION"}, {"bufferView" : 1, "byteOffset" : 12, "componentType" : 5126, "count" : 9208, "type" : "VEC2", "max" : [0.7683489918708801, 0.953341007232666], "min" : [0.03282700106501579, 0.36097997426986694], "name" : "TEXCOORD_0"}], "asset" : {"generator" : "Aspose.3D 23.2", "version" : "2.0"}, "buffers" : [{"uri" : "data:application/octet-stream;base64,", "byteLength" : 202628}], "bufferViews" : [{"buffer" : 0, "byteOffset" : 0, "byteLength" : 18420, "target" : 34963}, {"buffer" : 0, "byteOffset" : 18424, "byteLength" : 184200, "byteStride" : 20, "target" : 34962}], "materials" : [{"name" : "Brain pink", "pbrMetallicRoughness" : {"baseColorFactor" : [0.1843137294054, 0.40000000596046, 0.56470590829849, 1], "metallicFactor" : 0, "roughnessFactor" : 0.95}, "emissiveFactor" : [0, 0, 0], "alphaMode" : "OPAQUE", "doubleSided" : false}], "meshes" : [{"primitives" : [{"attributes" : {"POSITION" : 1, "TEXCOORD_0" : 2}, "indices" : 0, "material" : 0, "mode" : 4}]}], "nodes" : [{"mesh" : 0, "name" : "BRAIN"}], "scene" : 0, "scenes" : [{"nodes" : [0]}]}