{"accessors" : [{"bufferView" : 0, "byteOffset" : 0, "componentType" : 5123, "count" : 312, "type" : "SCALAR", "max" : [311], "min" : [0]}, {"bufferView" : 1, "byteOffset" : 0, "componentType" : 5126, "count" : 312, "type" : "VEC3", "max" : [2.7451210021972656, 9.998311996459961, 2.7451210021972656], "min" : [-2.7451210021972656, 2.751760959625244, -2.7451210021972656], "name" : "POSITION"}, {"bufferView" : 1, "byteOffset" : 12, "componentType" : 5126, "count" : 312, "type" : "VEC3", "max" : [0.9238795638084412, 0.9688257575035095, 0.9238795638084412], "min" : [-0.9238795638084412, -0.49771595001220703, -0.9238795638084412], "name" : "NORMAL"}, {"bufferView" : 0, "byteOffset" : 624, "componentType" : 5123, "count" : 672, "type" : "SCALAR", "max" : [671], "min" : [0]}, {"bufferView" : 2, "byteOffset" : 0, "componentType" : 5126, "count" : 672, "type" : "VEC3", "max" : [1.3971669673919678, 2.6661291122436523, 1.3971669673919678], "min" : [-1.3971669673919678, 0.29330000281333923, -1.3971669673919678], "name" : "POSITION"}, {"bufferView" : 2, "byteOffset" : 12, "componentType" : 5126, "count" : 672, "type" : "VEC3", "max" : [0.9238806962966919, 1.0000044107437134, 0.9238806962966919], "min" : [-0.9238806962966919, -1.0000044107437134, -0.9238806962966919], "name" : "NORMAL"}, {"bufferView" : 0, "byteOffset" : 1968, "componentType" : 5123, "count" : 72, "type" : "SCALAR", "max" : [71], "min" : [0]}, {"bufferView" : 3, "byteOffset" : 0, "componentType" : 5126, "count" : 72, "type" : "VEC3", "max" : [1.3971669673919678, 2.751760959625244, 1.3971669673919678], "min" : [-1.3971669673919678, 0.007952000014483929, -1.3971669673919678], "name" : "POSITION"}, {"bufferView" : 3, "byteOffset" : 12, "componentType" : 5126, "count" : 72, "type" : "VEC3", "max" : [0.5034107565879822, 0.8385179042816162, 0.5034107565879822], "min" : [-0.5034107565879822, -0.9497913718223572, -0.5034107565879822], "name" : "NORMAL"}], "asset" : {"generator" : "Aspose.3D 23.2", "version" : "2.0"}, "buffers" : [{"uri" : "data:application/octet-stream;base64,", "byteLength" : 27472}], "bufferViews" : [{"buffer" : 0, "byteOffset" : 0, "byteLength" : 2112, "target" : 34963}, {"buffer" : 0, "byteOffset" : 2116, "byteLength" : 7488, "byteStride" : 24, "target" : 34962}, {"buffer" : 0, "byteOffset" : 9608, "byteLength" : 16128, "byteStride" : 24, "target" : 34962}, {"buffer" : 0, "byteOffset" : 25740, "byteLength" : 1728, "byteStride" : 24, "target" : 34962}], "materials" : [{"name" : "FFEB3B", "pbrMetallicRoughness" : {"baseColorFactor" : [1, 0.84, 0.04, 1], "metallicFactor" : 0, "roughnessFactor" : 0.903921569}, "emissiveFactor" : [0, 0, 0], "alphaMode" : "OPAQUE", "doubleSided" : false}, {"name" : "78909C", "pbrMetallicRoughness" : {"baseColorFactor" : [0.19, 0.28, 0.34, 1], "metallicFactor" : 0, "roughnessFactor" : 0.903921569}, "emissiveFactor" : [0, 0, 0], "alphaMode" : "OPAQUE", "doubleSided" : false}, {"name" : "1A1A1A", "pbrMetallicRoughness" : {"baseColorFactor" : [0.01, 0.01, 0.01, 1], "metallicFactor" : 0, "roughnessFactor" : 0.903921569}, "emissiveFactor" : [0, 0, 0], "alphaMode" : "OPAQUE", "doubleSided" : false}], "meshes" : [{"primitives" : [{"attributes" : {"POSITION" : 1, "NORMAL" : 2}, "indices" : 0, "material" : 0, "mode" : 4}, {"attributes" : {"POSITION" : 4, "NORMAL" : 5}, "indices" : 3, "material" : 1, "mode" : 4}, {"attributes" : {"POSITION" : 7, "NORMAL" : 8}, "indices" : 6, "material" : 2, "mode" : 4}]}], "nodes" : [{"mesh" : 0, "name" : "Light_bulb_01_Circle.008"}], "scene" : 0, "scenes" : [{"nodes" : [0]}]}