{"accessors" : [{"bufferView" : 0, "byteOffset" : 0, "componentType" : 5123, "count" : 144, "type" : "SCALAR", "max" : [107], "min" : [0]}, {"bufferView" : 1, "byteOffset" : 0, "componentType" : 5126, "count" : 108, "type" : "VEC3", "max" : [0.3567996025085449, 0.7976182103157043, 0.5372854471206665], "min" : [-0.7113043665885925, -0.26712945103645325, -0.537285566329956], "name" : "POSITION"}, {"bufferView" : 1, "byteOffset" : 12, "componentType" : 5126, "count" : 108, "type" : "VEC3", "max" : [0.9243651032447815, 0.9997701644897461, 0.7923120856285095], "min" : [-0.9478447437286377, -0.9994945526123047, -0.7923120856285095], "name" : "NORMAL"}, {"bufferView" : 1, "byteOffset" : 24, "componentType" : 5126, "count" : 108, "type" : "VEC2", "max" : [0.17817430198192596, 1.163299560546875], "min" : [-0.1885620355606079, 0.8148360848426819], "name" : "TEXCOORD_0"}], "asset" : {"generator" : "Aspose.3D 23.2", "version" : "2.0"}, "buffers" : [{"uri" : "data:application/octet-stream;base64,", "byteLength" : 4904}], "bufferViews" : [{"buffer" : 0, "byteOffset" : 0, "byteLength" : 288, "target" : 34963}, {"buffer" : 0, "byteOffset" : 292, "byteLength" : 4608, "byteStride" : 32, "target" : 34962}], "meshes" : [{"primitives" : [{"attributes" : {"POSITION" : 1, "NORMAL" : 2, "TEXCOORD_0" : 3}, "indices" : 0, "mode" : 4}]}], "nodes" : [{"mesh" : 0, "name" : "py-lod1-object"}], "scene" : 0, "scenes" : [{"nodes" : [0]}]}